#!OML:ASF F:\VICON\USERDATA\INSTALL\rory3\rory3.ASF
:FULLY-SPECIFIED
:DEGREES
31
root 0.598627 18.2267 -22.0782 -3.57884 -1.21848 -5.04846
lowerback 10.2819 0.161467 3.70512
upperback 0.922803 0.789851 2.99432
thorax -4.80092 0.343061 0.926816
lowerneck -17.7318 -3.26856 -1.42829
upperneck 22.4338 -4.14695 -0.109889
head 10.1096 -2.04908 -0.373262
rclavicle -6.90777e-015 -1.59028e-015
rhumerus -28.1191 -20.7716 -76.9054
rradius 21.624
rwrist 8.73043
rhand -16.5872 14.454
rfingers 7.12502
rthumb 9.63365 -15.3057
lclavicle -6.90777e-015 -1.59028e-015
lhumerus -29.5431 -0.842992 84.9899
lradius 27.2135
lwrist 4.8651
lhand -28.9256 20.4181
lfingers 7.12502
lthumb -2.27983 50.3857
rfemur -10.562 5.12662 31.0984
rtibia 27.136
rfoot -10.4257 -4.48536
rtoes 7.84512
lfemur -15.6758 2.8557 -15.4999
ltibia 69.8406
lfoot 0.4666 -6.90787
ltoes -3.86927
32
root 0.595873 18.216 -21.9135 -3.56142 -1.47112 -5.09682
lowerback 10.3422 0.00337109 3.30052
upperback 0.166919 0.596079 3.41209
thorax -5.64115 0.250107 1.62616
lowerneck -14.6172 -2.9351 -2.23187
upperneck 21.8626 -3.52833 -0.109771
head 9.33768 -1.8459 -0.0982978
rclavicle 1.14922e-014 -2.74323e-014
rhumerus -29.2492 -17.7233 -76.8645
rradius 22.3411
rwrist 7.54953
rhand -16.742 13.0256
rfingers 7.12502
rthumb 9.48426 -16.741
lclavicle 1.14922e-014 -2.74323e-014
lhumerus -31.6226 0.498546 85.1605
lradius 27.1049
lwrist 4.90114
lhand -28.5886 19.7553
lfingers 7.12502
lthumb -1.95437 49.7261
rfemur -10.0979 5.29836 31.2751
rtibia 27.3782
rfoot -10.6868 -4.48908
rtoes 6.89942
lfemur -16.8021 2.93949 -15.4916
ltibia 69.7837
lfoot -0.838309 -6.33566
ltoes -4.367
33
root 0.592966 18.1778 -21.7555 -3.60047 -1.61436 -5.09824
lowerback 10.3643 0.28609 3.57663
upperback 0.793265 0.960212 3.15619
thorax -4.98645 0.428475 1.14426
lowerneck -16.7949 -3.20197 -1.96408
upperneck 22.3172 -3.95414 0.0306674
head 9.90675 -1.99432 -0.190801
rclavicle 3.13086e-015 5.12864e-014
rhumerus -27.699 -18.2197 -77.5166
rradius 22.5914
rwrist 7.26324
rhand -16.6744 12.7471
rfingers 7.12502
rthumb 9.54948 -17.0165
lclavicle 3.13086e-015 5.12864e-014
lhumerus -30.3391 -0.172268 85.1974
lradius 26.6896
lwrist 5.36789
lhand -27.4617 21.5923
lfingers 7.12502
lthumb -0.866023 51.5703
rfemur -9.60944 5.36779 31.4127
rtibia 27.6731
rfoot -11.3195 -4.59547
rtoes 6.28245
lfemur -17.8503 2.92108 -15.5142
ltibia 69.6456
lfoot -2.04894 -5.81493
ltoes -5.13074
34
root 0.59177 18.1661 -21.5923 -3.57786 -1.82391 -5.07691
lowerback 10.4519 0.323184 3.54914
upperback 0.399444 1.0307 3.14959
thorax -5.44986 0.456607 1.1437
lowerneck -15.1325 -3.10603 -2.21348
upperneck 21.965 -3.83019 0.190082
head 9.47879 -1.94843 -0.0455965
rclavicle 1.24613e-014 -2.38542e-015
rhumerus -28.1863 -17.1718 -77.6371
rradius 23.0285
rwrist 6.76483
rhand -16.4429 12.4571
rfingers 7.12502
rthumb 9.77289 -17.2962
lclavicle 1.24613e-014 -2.38542e-015
lhumerus -31.647 0.0419839 85.1762
lradius 26.8097
lwrist 5.60343
lhand -26.5087 23.0007
lfingers 7.12502
lthumb 0.0544719 52.9804
rfemur -9.23045 5.68718 31.5355
rtibia 28.0512
rfoot -12.0265 -4.88295
rtoes 6.43234
lfemur -18.8838 2.98295 -15.573
ltibia 69.2437
lfoot -3.19978 -5.22583
ltoes -5.09573
35
root 0.588038 18.1748 -21.4312 -3.5247 -1.99908 -5.26828
lowerback 10.5859 0.454048 3.89389
upperback 0.364419 1.24895 3.02909
thorax -5.55105 0.551943 0.790319
lowerneck -15.1067 -3.13303 -2.01708
upperneck 21.8811 -3.93595 0.267017
head 9.44275 -1.97268 -0.0637123
rclavicle -1.14674e-014 2.78299e-015
rhumerus -28.0333 -16.6968 -78.0905
rradius 23.7346
rwrist 6.36308
rhand -16.3034 13.1597
rfingers 7.12502
rthumb 9.90743 -16.5872
lclavicle -1.14674e-014 2.78299e-015
lhumerus -31.9896 -0.324912 85.1098
lradius 26.9779
lwrist 5.82343
lhand -26.0232 23.5346
lfingers 7.12502
lthumb 0.523325 53.5137
rfemur -8.87983 5.93885 31.8943
rtibia 28.4335
rfoot -12.5706 -5.2661
rtoes 7.61576
lfemur -20.0537 3.03144 -15.3776
ltibia 68.6482
lfoot -4.14934 -4.77434
ltoes -3.75239
36
root 0.579675 18.1597 -21.2725 -3.52929 -2.12394 -5.53179
lowerback 10.8449 0.686455 4.34568
upperback 0.616935 1.60492 2.83438
thorax -5.40724 0.717008 0.276335
lowerneck -16.2211 -3.30911 -1.53331
upperneck 21.9546 -4.27914 0.236974
head 9.66769 -2.08828 -0.218883
rclavicle 3.34952e-014 1.43125e-014
rhumerus -27.2782 -16.6799 -78.6962
rradius 24.3498
rwrist 5.87104
rhand -16.5368 14.1943
rfingers 7.12502
rthumb 9.68223 -15.5632
lclavicle 3.34952e-014 1.43125e-014
lhumerus -31.5823 -1.18813 85.112
lradius 26.9959
lwrist 6.1572
lhand -26.0101 23.7365
lfingers 7.12502
lthumb 0.536016 53.7155
rfemur -8.44966 6.27871 32.3789
rtibia 28.7352
rfoot -13.0527 -6.18311
rtoes 7.58234
lfemur -21.2086 3.03189 -15.0581
ltibia 68.0156
lfoot -4.95977 -4.3083
ltoes -3.49518
37
root 0.574459 18.1209 -21.1132 -3.37746 -2.15584 -5.72894
lowerback 10.8883 0.469018 4.1401
upperback -0.119507 1.35542 3.20848
thorax -6.23189 0.586879 0.823439
lowerneck -13.4804 -3.00077 -2.22374
upperneck 21.3215 -3.73167 0.258481
head 8.94847 -1.90396 0.0251388
rclavicle -1.45672e-014 4.37326e-015
rhumerus -28.3483 -14.2124 -78.7003
rradius 24.9282
rwrist 4.71338
rhand -16.9175 12.0634
rfingers 7.12502
rthumb 9.31491 -17.7108
lclavicle -1.45672e-014 4.37326e-015
lhumerus -33.9292 -0.213115 85.2692
lradius 27.5203
lwrist 6.22625
lhand -26.4782 22.7472
lfingers 7.12502
lthumb 0.0839134 52.727
rfemur -8.17601 6.75085 32.7675
rtibia 28.9868
rfoot -13.8063 -7.4178
rtoes 5.43438
lfemur -22.4823 2.85187 -14.8311
ltibia 67.3417
lfoot -5.62542 -3.79031
ltoes -3.86078
38
root 0.573889 18.0922 -20.9535 -3.21195 -2.0964 -5.78741
lowerback 10.7731 0.556331 4.30057
upperback 0.131747 1.46474 3.12122
thorax -5.8926 0.641294 0.62477
lowerneck -14.7593 -3.07758 -2.24131
upperneck 21.6596 -3.83101 0.369896
head 9.30682 -1.93266 0.029852
rclavicle -8.83349e-015 3.57812e-014
rhumerus -27.5277 -13.8541 -79.128
rradius 25.3784
rwrist 4.06568
rhand -17.0894 9.98067
rfingers 7.12502
rthumb 9.14909 -19.8009
lclavicle -8.83349e-015 3.57812e-014
lhumerus -33.5672 -0.466668 85.3758
lradius 27.5417
lwrist 6.33348
lhand -26.8087 22.8298
lfingers 7.12502
lthumb -0.235363 52.8094
rfemur -7.92051 6.8283 32.9422
rtibia 29.2524
rfoot -14.8852 -7.74739
rtoes 4.06371
lfemur -23.5741 2.62916 -14.7699
ltibia 66.4806
lfoot -6.2412 -3.23078
ltoes -3.9992
39
root 0.575964 18.0763 -20.786 -3.1222 -2.06202 -5.77608
lowerback 10.7525 0.654836 4.49777
upperback 0.209826 1.60283 2.9301
thorax -5.78459 0.703174 0.292377
lowerneck -15.2357 -3.16293 -1.96741
upperneck 21.7313 -4.00129 0.339918
head 9.41561 -1.98988 -0.0558234
rclavicle -4.13721e-015 -1.90833e-014
rhumerus -27.0406 -13.6066 -79.5347
rradius 25.8163
rwrist 3.61817
rhand -17.5387 12.8639
rfingers 7.12502
rthumb 8.71555 -16.9361
lclavicle -4.13721e-015 -1.90833e-014
lhumerus -33.5024 -0.783638 85.2797
lradius 27.4385
lwrist 6.12185
lhand -26.0832 24.0886
lfingers 7.12502
lthumb 0.465373 54.0679
rfemur -7.50792 6.71804 32.9962
rtibia 29.4767
rfoot -15.955 -7.84395
rtoes 2.61371
lfemur -24.4654 2.41193 -14.8304
ltibia 65.3428
lfoot -6.75491 -2.58916
ltoes -3.74235
40
root 0.575157 18.0652 -20.6198 -3.01536 -2.2583 -5.95613
lowerback 10.744 0.790317 4.85587
upperback 0.210943 1.81846 2.80076
thorax -5.75787 0.797662 -0.0766493
lowerneck -15.2006 -3.22253 -1.74497
upperneck 21.566 -4.15022 0.38524
head 9.34861 -2.03646 -0.0935106
rclavicle -1.86609e-014 -7.15625e-015
rhumerus -26.6575 -13.2477 -79.945
rradius 26.2191
rwrist 3.10137
rhand -18.5458 18.9227
rfingers 7.12502
rthumb 7.74359 -10.9155
lclavicle -1.86609e-014 -7.15625e-015
lhumerus -33.6661 -1.10647 85.1766
lradius 27.2768
lwrist 5.96601
lhand -25.7836 23.1674
lfingers 7.12502
lthumb 0.754719 53.1458
rfemur -7.04343 7.00054 33.2992
rtibia 29.6275
rfoot -16.7017 -8.25558
rtoes 1.30465
lfemur -25.3512 2.40167 -14.6327
ltibia 63.9351
lfoot -7.18007 -1.97865
ltoes -3.94446
41
root 0.577784 18.049 -20.4527 -2.8739 -2.6082 -6.24568
lowerback 10.6997 0.916027 5.22414
upperback 0.302287 2.02285 2.8173
thorax -5.61778 0.892064 -0.294687
lowerneck -15.507 -3.14195 -1.77605
upperneck 21.4622 -4.05334 0.517682
head 9.37204 -1.97737 -0.0350503
rclavicle 1.04362e-015 -7.15625e-015
rhumerus -26.3198 -12.5151 -80.3117
rradius 26.9217
rwrist 2.42972
rhand -19.1439 21.7621
rfingers 7.12502
rthumb 7.16621 -8.0966
lclavicle 1.04362e-015 -7.15625e-015
lhumerus -33.7704 -1.25976 85.2574
lradius 27.3442
lwrist 6.273
lhand -26.397 21.0427
lfingers 7.12502
lthumb 0.162307 51.0223
rfemur -6.58061 7.08581 33.671
rtibia 29.7299
rfoot -16.9746 -8.05332
rtoes 2.61154
lfemur -26.1533 2.52402 -14.2867
ltibia 62.4148
lfoot -7.6616 -1.2918
ltoes -4.22743
42
root 0.584497 18.0222 -20.2834 -2.74147 -2.851 -6.39975
lowerback 10.755 1.04575 5.52177
upperback 0.375686 2.22684 2.7423
thorax -5.54878 0.98573 -0.570615
lowerneck -16.2976 -3.11717 -1.62966
upperneck 21.8092 -4.03878 0.480381
head 9.63648 -1.95636 -0.0869982
rclavicle 6.08778e-015 1.21259e-014
rhumerus -26.1292 -11.9987 -80.6593
rradius 27.7728
rwrist 1.88323
rhand -19.1242 21.9939
rfingers 7.12502
rthumb 7.18522 -7.86411
lclavicle 6.08778e-015 1.21259e-014
lhumerus -33.8584 -1.40837 85.2871
lradius 27.4218
lwrist 6.44417
lhand -27.3075 20.2097
lfingers 7.12502
lthumb -0.717126 50.1882
rfemur -6.0843 7.06101 33.8539
rtibia 29.7639
rfoot -17.183 -7.82812
rtoes 3.8557
lfemur -26.8141 2.49148 -14.1039
ltibia 60.8187
lfoot -8.17693 -0.41981
ltoes -3.91216
